<svg xmlns="http://www.w3.org/2000/svg" version="1.1" xmlns:xlink="http://www.w3.org/1999/xlink" xmlns:svgjs="http://svgjs.dev/svgjs" width="1440" height="560" preserveAspectRatio="none" viewBox="0 0 1440 560"><g mask="url(&quot;#SvgjsMask1002&quot;)" fill="none"><rect width="1440" height="560" x="0" y="0" fill="url(&quot;#SvgjsLinearGradient1003&quot;)"></rect><path d="M1440 0L1158.08 0L1440 153.22z" fill="rgba(255, 255, 255, .1)"></path><path d="M1158.08 0L1440 153.22L1440 214.84L871.5799999999999 0z" fill="rgba(255, 255, 255, .075)"></path><path d="M871.5799999999999 0L1440 214.84L1440 336.49L869.68 0z" fill="rgba(255, 255, 255, .05)"></path><path d="M869.68 0L1440 336.49L1440 390.34000000000003L554.27 0z" fill="rgba(255, 255, 255, .025)"></path><path d="M0 560L315.45 560L0 516.69z" fill="rgba(0, 0, 0, .1)"></path><path d="M0 516.69L315.45 560L497.79999999999995 560L0 375.34000000000003z" fill="rgba(0, 0, 0, .075)"></path><path d="M0 375.34000000000003L497.79999999999995 560L566.6199999999999 560L0 325.40000000000003z" fill="rgba(0, 0, 0, .05)"></path><path d="M0 325.4L566.6199999999999 560L1138.27 560L0 305.88z" fill="rgba(0, 0, 0, .025)"></path></g><defs><mask id="SvgjsMask1002"><rect width="1440" height="560" fill="#ffffff"></rect></mask><linearGradient x1="15.28%" y1="-39.29%" x2="84.72%" y2="139.29%" gradientUnits="userSpaceOnUse" id="SvgjsLinearGradient1003"><stop stop-color="#0e2a47" offset="0"></stop><stop stop-color="rgba(6, 185, 188, 0.87)" offset="1"></stop></linearGradient></defs></svg>